<svg width="100" height="100" viewBox="0 0 100 100" fill="none" xmlns="http://www.w3.org/2000/svg">
<path d="M49.1337 94C19.4001 94 5 72.7227 5 50.9591C5 28.2227 20.7334 5 51.0002 5C57.6665 5 64.0669 5.85081 67.6666 10.5931H67.2667C64.0669 10.5931 39.9333 11.2008 32.0669 29.925C29.4001 36.3689 28.2 42.2052 28.2 47.3114C28.2 62.9962 39.1336 71.9932 50.3332 71.9932C59.1331 71.9932 67.9331 66.4 71.5334 54.2417C72.3331 51.5674 72.5996 49.1356 72.5996 46.7038C72.5996 31.5053 59.5336 20.8061 59.5336 20.8061C62.0665 20.1984 64.6 19.9552 66.8669 19.9552C84.6001 19.9552 95 35.8826 95 53.0258C95 72.7227 81.133 94 49.1337 94Z" fill="#7BFF53"/>
<path d="M85.7686 39.5528C89.7752 45.0937 90.4004 52.0472 90.9612 65.7298C89.423 69.6562 86.2303 77.5089 85.7686 77.5089C85.3057 77.5102 76.5373 81.8719 72.2107 84.0528L65.8741 80.1316C69.3553 82.266 76.6178 63.8456 76.5379 51.0706C78.304 54.1584 78.6085 59.0356 78.1804 67.3469C79.3219 66.509 80.5523 63.0671 81.4852 59.1465C81.6912 54.9215 81.5148 49.9579 80.8652 43.4792C84.1255 47.1946 84.9188 55.5272 85.0862 62.5756C86.688 57.4913 86.8548 52.7264 86.4446 44.9782C86.285 43.0747 86.0641 41.2447 85.7686 39.5528ZM85.1177 68.1984C85.1119 69.0382 85.1055 69.8161 85.101 70.5147C85.1943 71.8615 85.2729 73.0529 85.3353 73.9915C85.5562 73.6025 85.9148 71.1707 86.2212 67.6262L85.1177 68.1984ZM32.9862 10.7589C29.4818 16.9545 27.0417 21.8529 25.1611 26.3914C27.5181 23.4378 30.4927 20.5254 34.1406 17.3028C23.5734 36.3889 21.2439 43.8868 20.0059 56.5676C20.7888 52.3884 21.4699 50.3011 25.1978 49.2381C22.3011 64.083 24.7773 64.8687 26.6406 70.9649L6.44794 57.3533C6.02687 49.6619 6.78209 45.1201 9.62141 36.6733C9.94783 41.217 10.761 43.3792 14.8133 45.5736C17.5985 27.2564 21.6979 19.8126 32.9862 10.7589Z" fill="#4DB32E"/>
<path d="M14.8017 27.25C16.8878 41.1519 19.523 51.8073 24.9917 62.3144C25.387 60.127 25.9504 57.7823 26.6715 55.2589C27.7609 61.6403 29.0762 66.8432 31.3644 71.7571C30.9363 69.4698 30.624 66.9529 30.3845 64.1592C32.1834 69.4943 33.8812 73.7754 35.861 77.5076C36.1481 75.5538 36.9162 73.4084 38.1208 70.965C38.7621 73.2052 39.3802 75.201 40.035 77.0548C40.308 75.5183 40.7889 73.8535 41.463 72.0119C42.0077 74.5759 42.5273 76.8033 43.0984 78.8654C43.7679 78.0263 44.5624 77.1413 45.476 76.2001C45.5481 77.4728 45.6209 78.6448 45.711 79.7498C46.0973 77.9082 46.7682 75.895 47.6992 73.5826C47.7945 77.6244 47.8898 80.7767 48.1628 83.8806L49.7118 79.8646L50.8656 86.4092L52.5962 81.9591L52.9664 82.9679C53.6013 80.0407 54.0899 76.9581 54.6153 73.0588C55.3795 76.3524 55.7324 79.0512 55.6133 81.4695C56.0375 80.3432 56.4831 79.1222 56.9614 77.7708C57.1288 78.9867 57.2125 80.0955 57.2113 81.1218C57.5435 80.2387 57.8712 79.3034 58.2066 78.2946C58.6374 79.0467 58.9966 79.7575 59.2831 80.4335C60.4324 78.4313 61.6318 76.1995 62.9807 73.5826C63.4397 75.8763 63.5582 77.8656 63.3135 79.6589C65.1498 77.2941 67.0594 74.6462 69.2297 71.4881C69.6373 73.0162 69.8613 74.4211 69.8968 75.7306C72.5957 71.7494 74.9322 67.1877 77.4039 61.5416C76.7234 67.6656 75.6224 72.5628 73.6098 76.6626C80.9514 69.335 86.1543 60.9908 91.8271 49.2381C91.0049 55.9453 89.7804 61.5855 87.778 66.4549C88.0394 66.3278 88.288 66.1794 88.5268 66.004C89.5705 65.2396 90.4815 63.9734 91.5677 61.9499L91.8284 61.4655L92.0866 61.9506C92.7858 63.2619 92.9693 64.2398 92.9854 65.8737C88.1051 80.9754 74.1693 94 49.1337 94C22.5671 94 8.24168 77.0135 5.49121 57.8713L9.63429 48.097L10.1919 48.1725C10.3348 49.969 10.4764 51.5312 10.6992 52.8413C10.8801 53.9069 11.1119 54.7913 11.4312 55.4918C10.7288 47.712 11.9689 38.5163 14.8017 27.25Z" fill="#57C536"/>
</svg>
