<svg width="74" height="32" viewBox="0 0 74 32" fill="none" xmlns="http://www.w3.org/2000/svg">
<path d="M21.68 17.664C21.248 17.664 20.84 17.64 20.456 17.616H14C14.84 17.496 15.56 17.112 16.064 16.368V1.368C15.56 0.624001 14.84 0.24 14 0.12H20.552C20.864 0.0960002 21.176 0.0960002 21.512 0.0960002C23.408 0.0960002 25.568 0.48 27.44 1.704C29.504 3.048 30.512 5.88 30.512 8.736C30.512 11.568 29.528 14.448 27.608 15.936C25.904 17.256 23.672 17.664 21.68 17.664ZM20.072 14.808C20.432 14.808 20.792 14.784 21.152 14.76C24.944 14.28 26.624 11.736 26.624 9.144C26.624 6.048 24.272 2.856 20.264 2.856H20.072V14.808Z" fill="white"/>
<path d="M35.8327 18.12H35.7847C32.0167 18.12 29.3047 15.672 29.3047 12.72C29.3047 10.464 31.0087 8.52 33.4087 7.728C32.4247 6.936 31.8007 5.712 31.8007 4.344C31.8007 1.944 33.7447 0 36.1447 0C38.7367 0 40.5367 2.472 40.5367 4.752C40.5367 6.024 39.9607 7.248 38.6167 7.92C41.6407 10.92 47.3287 16.44 51.3607 17.592L47.5447 17.616C44.8087 17.616 44.2567 17.376 41.4727 15.432C40.3447 17.04 39.6247 18.096 35.8327 18.12ZM36.7687 6.336C37.5847 5.76 37.9207 4.944 37.9207 4.2C37.9207 3.12 37.2007 2.16 36.1447 2.16C35.2327 2.16 34.5367 2.928 34.5367 3.84C34.5367 4.728 35.1607 5.712 36.7687 6.336ZM37.2007 15.456C37.9927 15.456 38.7127 15.072 39.1207 14.208V14.184C39.1207 13.728 35.6887 10.392 35.0887 9.744C34.3447 10.632 34.0327 11.496 34.0327 12.264C34.0327 14.112 35.7127 15.456 37.2007 15.456Z" fill="white"/>
<path d="M48.4841 17.664C48.0521 17.664 47.6441 17.64 47.2601 17.616H40.8041C41.6441 17.496 42.3641 17.112 42.8681 16.368V1.368C42.3641 0.624001 41.6441 0.24 40.8041 0.12H47.3561C47.6681 0.0960002 47.9801 0.0960002 48.3161 0.0960002C50.2121 0.0960002 52.3721 0.48 54.2441 1.704C56.3081 3.048 57.3161 5.88 57.3161 8.736C57.3161 11.568 56.3321 14.448 54.4121 15.936C52.7081 17.256 50.4761 17.664 48.4841 17.664ZM46.8761 14.808C47.2361 14.808 47.5961 14.784 47.9561 14.76C51.7481 14.28 53.4281 11.736 53.4281 9.144C53.4281 6.048 51.0761 2.856 47.0681 2.856H46.8761V14.808Z" fill="white"/>
<path d="M7.02431 31.816H1.76132V19.2878C1.32099 18.7175 0.712915 18.4415 0 18.3495H9.05822C11.5744 18.3495 13.6502 20.1708 13.6502 22.3968C13.6502 24.6045 11.5115 26.6465 8.97434 26.6465H5.28396V30.9146C5.72429 31.4481 6.3114 31.724 7.02431 31.816ZM6.75173 25.3955C8.53401 25.3955 9.98081 24.1078 9.98081 22.544C9.98081 20.9803 8.53401 19.6925 6.75173 19.6925H5.28396V25.3955H6.75173Z" fill="white"/>
<path d="M37.3106 32C33.8928 32 30.9992 28.431 29.7201 26.6465H28.5459V30.8778C28.9653 31.4297 29.5734 31.6873 30.2653 31.7792H25.0233V19.3062C24.583 18.7175 23.9749 18.4415 23.241 18.3311H32.2992C34.8364 18.3311 36.9122 20.2076 36.9122 22.4888C36.9122 24.4205 35.3815 26.1866 33.3896 26.7017C34.1654 28.4126 37.1009 30.9146 38.8413 31.8712L37.8348 31.9632L37.3106 32ZM29.9927 25.3587C31.775 25.3587 33.2428 24.2549 33.2428 22.6544C33.2428 21.0355 31.796 19.7293 29.9927 19.7293H28.5459V25.3587H29.9927Z" fill="white"/>
<path d="M46.4597 31.816H39.3515C40.0854 31.724 40.7145 31.4297 41.1548 30.8594V21.3114C38.8693 21.3114 36.1015 21.4034 35.7031 22.0473L36.9612 18.4047H48.8501L50.1082 22.0473C49.7098 21.4034 46.963 21.3114 44.6565 21.3114V30.8594C45.0968 31.4297 45.7258 31.724 46.4597 31.816Z" fill="white"/>
<path d="M61.3539 31.816L53.6796 31.7976C54.4554 31.4297 54.6861 30.8594 54.6861 30.2155C54.6861 29.6268 54.4764 29.0013 54.3296 28.431H48.5215C48.3747 28.8357 47.9973 30.3259 47.9973 31.1905C47.9973 31.5401 48.0602 31.7976 48.2489 31.7976H43.8037C44.9569 31.6873 49.8634 21.8265 49.8634 18.9382C49.8634 18.6991 49.8425 18.4967 49.7586 18.3679C49.8425 18.3495 50.1989 18.2208 50.7441 18.2208C51.6457 18.2208 53.0296 18.5887 54.3716 20.4836C56.07 22.8936 58.9426 30.7674 61.3539 31.816ZM53.7845 26.6465C53.1345 24.8988 52.3586 23.1327 51.6248 21.4218C51.0376 22.6544 50.0731 24.77 49.2763 26.6465H53.7845Z" fill="white"/>
<path d="M72.7209 31.816H60.3078C61.0417 31.7057 61.6708 31.4297 62.1111 30.841V19.3062C61.6708 18.7359 61.0417 18.4415 60.3078 18.3495H67.416C66.6821 18.4415 66.0531 18.7359 65.6128 19.3062V28.8541C66.1579 28.8541 67.437 28.9093 68.8418 28.9093C71.0645 28.9093 73.6016 28.7806 74 28.1735L72.7209 31.816Z" fill="white"/>
<path d="M19.9114 31.7976C15.2932 31.7976 13.0566 28.499 13.0566 25.125C13.0566 21.6002 15.5003 18 20.2013 18C21.2367 18 22.2308 18.1319 22.7899 18.8671H22.7278C22.2308 18.8671 18.4824 18.9613 17.2606 21.8641C16.8464 22.8631 16.66 23.7679 16.66 24.5595C16.66 26.9911 18.3582 28.3859 20.0977 28.3859C21.4645 28.3859 22.8313 27.5188 23.3905 25.6339C23.5147 25.2193 23.5561 24.8423 23.5561 24.4653C23.5561 22.1091 21.5267 20.4504 21.5267 20.4504C21.9201 20.3562 22.3136 20.3185 22.6657 20.3185C25.42 20.3185 27.0353 22.7877 27.0353 25.4454C27.0353 28.499 24.8815 31.7976 19.9114 31.7976Z" fill="#7BFF53"/>
<path d="M25.6015 23.3567C26.2238 24.2157 26.3209 25.2937 26.408 27.4149C26.1691 28.0236 25.6732 29.241 25.6015 29.241C25.5296 29.2412 24.1677 29.9174 23.4957 30.2555L22.5115 29.6476C23.0522 29.9785 24.1802 27.1228 24.1678 25.1423C24.4421 25.621 24.4894 26.3771 24.4229 27.6656C24.6002 27.5357 24.7913 27.0021 24.9362 26.3943C24.9682 25.7393 24.9408 24.9698 24.8399 23.9654C25.3463 24.5414 25.4695 25.8332 25.4955 26.9259C25.7443 26.1377 25.7702 25.399 25.7065 24.1978C25.6817 23.9027 25.6474 23.619 25.6015 23.3567ZM25.5004 27.7976C25.4995 27.9278 25.4985 28.0484 25.4978 28.1567C25.5123 28.3655 25.5245 28.5502 25.5342 28.6957C25.5685 28.6354 25.6242 28.2584 25.6718 27.7089L25.5004 27.7976ZM17.4034 18.8928C16.8591 19.8533 16.4801 20.6127 16.188 21.3163C16.5541 20.8584 17.0161 20.4069 17.5827 19.9073C15.9414 22.8662 15.5796 24.0286 15.3873 25.9945C15.5089 25.3466 15.6147 25.023 16.1937 24.8582C15.7438 27.1596 16.1284 27.2814 16.4178 28.2265L13.2815 26.1163C13.2161 24.9239 13.3334 24.2198 13.7744 22.9103C13.8251 23.6147 13.9514 23.9499 14.5808 24.2901C15.0134 21.4504 15.6501 20.2964 17.4034 18.8928Z" fill="#4DB32E"/>
<path d="M14.579 21.4494C14.903 23.6046 15.3123 25.2565 16.1617 26.8854C16.2231 26.5463 16.3106 26.1828 16.4226 25.7916C16.5918 26.7809 16.7961 27.5875 17.1515 28.3493C17.085 27.9947 17.0365 27.6045 16.9993 27.1714C17.2787 27.9985 17.5424 28.6622 17.8499 29.2408C17.8945 28.9379 18.0138 28.6053 18.2009 28.2265C18.3005 28.5738 18.3965 28.8832 18.4982 29.1706C18.5406 28.9324 18.6153 28.6743 18.72 28.3888C18.8046 28.7863 18.8853 29.1316 18.974 29.4513C19.078 29.3212 19.2014 29.184 19.3433 29.0381C19.3545 29.2354 19.3658 29.4171 19.3798 29.5884C19.4398 29.3029 19.544 28.9908 19.6886 28.6323C19.7034 29.2589 19.7182 29.7476 19.7606 30.2288L20.0012 29.6062L20.1804 30.6208L20.4492 29.9309L20.5067 30.0873C20.6053 29.6335 20.6812 29.1556 20.7628 28.5511C20.8815 29.0617 20.9363 29.4801 20.9178 29.855C20.9837 29.6804 21.0529 29.4911 21.1272 29.2816C21.1532 29.4701 21.1662 29.642 21.166 29.8011C21.2176 29.6642 21.2685 29.5192 21.3206 29.3628C21.3875 29.4794 21.4433 29.5896 21.4878 29.6944C21.6663 29.384 21.8526 29.038 22.0621 28.6323C22.1334 28.9879 22.1518 29.2963 22.1138 29.5743C22.399 29.2077 22.6956 28.7972 23.0327 28.3076C23.096 28.5445 23.1308 28.7623 23.1363 28.9653C23.5555 28.3481 23.9184 27.6409 24.3023 26.7656C24.1966 27.715 24.0256 28.4742 23.713 29.1098C24.8533 27.9738 25.6614 26.6802 26.5425 24.8582C26.4148 25.898 26.2246 26.7724 25.9136 27.5273C25.9542 27.5076 25.9928 27.4846 26.0299 27.4574C26.192 27.3389 26.3335 27.1426 26.5022 26.8289L26.5427 26.7538L26.5828 26.829C26.6914 27.0323 26.7199 27.1839 26.7224 27.4372C25.9644 29.7784 23.7999 31.7976 19.9114 31.7976C15.7851 31.7976 13.5601 29.1642 13.1329 26.1966L13.7764 24.6813L13.863 24.693C13.8852 24.9715 13.9072 25.2137 13.9418 25.4168C13.9699 25.582 14.0059 25.7191 14.0555 25.8277C13.9464 24.6216 14.139 23.196 14.579 21.4494Z" fill="#57C536"/>
</svg>
