<svg width="100" height="100" viewBox="0 0 100 100" xmlns="http://www.w3.org/2000/svg">
 <path d="M13.5 8.4c3-3 7.8-3 10.8 0l67.3 67.3c3 3 3 7.8 0 10.8s-7.8 3-10.8 0L69.7 75.4C63.9 78.2 57.3 80 50 80 24.4 80 6.6 56.9 5.9 55.9c-2.1-2.8-2.1-7 0-9.8.4-.6 7.2-9.4 18.3-16.1L13.5 19.2c-3-3-3-7.8 0-10.8zM50 20c25.6 0 43.4 23.1 44.1 24.1 2.1 2.8 2.1 7 0 9.8-.3.4-4.5 5.9-11.6 11.6L70.8 53.8c.1-.9.2-1.9.2-2.8 0-11.6-9.4-21-21-21-1 0-1.9.1-2.8.2L37.5 20.5C41.4 20.2 45.6 20 50 20zM29 51c0 11.6 9.4 21 21 21 .8 0 1.6 0 2.4-.1L29.1 48.6C29 49.4 29 50.2 29 51z"/>
</svg>
