<svg width="100" height="100" version="1.1" viewBox="0 0 100 100" xml:space="preserve" xmlns="http://www.w3.org/2000/svg"><path d="m44.977 0c-1.702 0-3.2771 0.87978-4.1281 2.2888-0.80916 1.3393-0.85112 2.9704-0.11172 4.3515l1.1172 2.1063c-1.0882 0-2.1918-6.543e-4 -2.9591 0.027246-1.9392 0.055804-2.5529 2.4424-2.6785 4.1444-0.13951 1.981 0.47564 3.9747 1.6894 5.6349-1.6602 0.58594-3.2529 1.2835-4.7875 2.0926l-12.793-4.8529-7.3788 7.3787 4.8556 12.793c-1.0045 1.9252-1.8566 3.9343-2.5123 6.0409l-12.444 5.6076v10.436l12.471 5.6076c0.6557 2.1066 1.5078 4.1156 2.5123 6.0409l-4.8556 12.793 7.3815 7.3815 12.793-4.8556c1.9113 1.0045 3.9319 1.8566 6.0245 2.5123l5.6104 12.471h10.433l5.6104-12.471c2.1066-0.6557 4.116-1.5078 6.0273-2.5123l12.793 4.8556 7.3788-7.3815-4.8556-12.793c1.0045-1.9252 1.8566-3.9343 2.5123-6.0409l12.471-5.6076v-10.436l-12.471-5.6076c-0.65569-2.1066-1.5078-4.1156-2.5123-6.0409l4.8556-12.793-7.3788-7.3787-12.793 4.8529c-1.5346-0.80916-3.1413-1.5067-4.7875-2.0926 1.2137-1.6602 1.8428-3.6678 1.6894-5.6349-0.12556-1.702-0.75325-4.0886-2.6785-4.1444-0.7673-0.027902-1.871-0.027246-2.9591-0.027246l1.1172-2.1063c0.7394-1.3811 0.69744-3.0122-0.11175-4.3515-0.85098-1.409-2.426-2.2888-4.128-2.2888zm0.01635 3.5014h10.016c0.92075 0 1.5347 0.79531 1.158 1.5068l-0.76839 3.3215c-1.4509 0.27902-3.919 0.4169-5.3978 0.4169-1.4788 0-3.9496-0.13788-5.4005-0.4169l-0.76567-3.3215c-0.37668-0.7115 0.23728-1.5068 1.158-1.5068zm-2.7629 8.2589h15.54c1.5904 0 2.8883 1.2979 2.8883 2.8883 0 1.3951-0.99106 2.552-2.3025 2.8311-0.19531 0.04185-0.39052 0.05723-0.58583 0.05723h-15.54c-0.19531 0-0.39052-0.01537-0.58583-0.05723-1.3114-0.26507-2.3025-1.436-2.3025-2.8311 0-1.5904 1.2979-2.8883 2.8883-2.8883zm-2.4687 9.1662c0.22322 0.43248 0.32044 1.1298-0.09809 2.218-0.0279 0.0558-0.04294 0.11281-0.07084 0.18256-0.08371 0.20926-0.20959 0.43041-0.33515 0.66757-0.37668 0.66965-0.93504 1.4505-1.7302 2.3433-0.27902 0.32087-0.58583 0.65668-0.93461 1.0054-0.66965 0.6836-1.4628 1.4385-2.4114 2.2616-0.12556 0.09766-0.2242 0.1939-0.3079 0.29155-5.8176 4.7154-9.5286 11.901-9.5286 19.965 0 4.548 1.1992 8.8177 3.2779 12.529 3.0274 5.399 7.9513 9.5834 13.866 11.662v-12.109c0-0.51618-0.27869-0.99074-0.71117-1.2698h-0.0028l-0.0028-0.0028h-0.0028l-0.0028-0.0028c-0.01046-0.0085-0.0195-0.02768-0.02997-0.03814-0.55804-0.36272-1.089-0.75313-1.5913-1.1717-0.0279-0.0279-0.05384-0.04022-0.08174-0.06812-0.51619-0.43248-1.0056-0.89319-1.4659-1.3815-0.92076-0.99052-1.7173-2.0785-2.3869-3.2643-0.0279-0.04185-0.05384-0.09711-0.08174-0.13896-0.30692-0.55804-0.57177-1.1167-0.82289-1.7166-0.0279-0.08371-0.07019-0.16698-0.09809-0.25068-0.22322-0.57199-0.41842-1.174-0.58583-1.7738-0.0279-0.09766-0.04294-0.19422-0.07084-0.27793-0.15346-0.61384-0.27869-1.2411-0.3624-1.8828 0-0.06976-0.01325-0.15368-0.02725-0.22343-0.08371-0.66965-0.12534-1.3542-0.12534-2.0518 0-0.59989 0.04228-1.1852 0.09809-1.7711 0-0.11161 0.01325-0.20992 0.02725-0.32153 0.06976-0.55804 0.16632-1.1017 0.27793-1.6458 0.0279-0.09766 0.05689-0.21024 0.07084-0.3079 0.13951-0.55804 0.29275-1.102 0.47411-1.6322 0.19532-0.53014 0.41679-1.0454 0.65395-1.5477 0.04185-0.09766 0.08588-0.19422 0.14169-0.27793 0.23717-0.48828 0.50027-0.94834 0.77929-1.4087 0.0558-0.08371 0.11313-0.16937 0.16894-0.26703 0.29297-0.46038 0.61308-0.91902 0.96186-1.3515 0.34877-0.43248 0.71292-0.85188 1.1035-1.2425 0.06975-0.06976 0.13733-0.15368 0.20708-0.22343 0.37668-0.37668 0.76948-0.73875 1.188-1.0736 0.0279-0.0279 0.05352-0.05657 0.09537-0.08447h0.0084l0.0028-0.0028c0.01116-0.0046 0.02539-0.01406 0.04632-0.02453 0.75335-0.61384 1.5495-1.1575 2.4005-1.6458v14.425c0 0.54409 0.29101 1.0592 0.77929 1.3243l5.8311 3.2098 1.6757 0.92098 1.673-0.92098 5.8311-3.2098c0.48828-0.26507 0.78202-0.76621 0.78202-1.3243v-14.425c0.85101 0.47433 1.6472 1.0319 2.4005 1.6458h0.0084l0.0028 0.0028c0.01116 0.0046 0.02274 0.01406 0.04353 0.02453 0.0279 0.0279 0.05622 0.05657 0.09808 0.08447 0.40456 0.33482 0.8086 0.69689 1.1853 1.0736 0.06976 0.06976 0.14007 0.15368 0.20982 0.22343 0.39063 0.40458 0.75476 0.81003 1.1035 1.2425 0.34877 0.43248 0.65493 0.89112 0.96185 1.3515 0.0558 0.0837 0.11035 0.16937 0.16621 0.26703 0.27902 0.46038 0.54486 0.92044 0.78202 1.4087 0.04185 0.09766 0.08315 0.19422 0.13895 0.27793 0.23717 0.50223 0.46137 1.0175 0.65667 1.5477 0.18136 0.53014 0.33461 1.0741 0.47412 1.6322 0.0279 0.09766 0.05692 0.21024 0.07087 0.3079 0.12556 0.54409 0.20818 1.0877 0.27793 1.6458 0 0.11161 0.0272 0.20992 0.0272 0.32153 0.0558 0.58594 0.09807 1.1712 0.09807 1.7711 0 0.69755-0.05552 1.3821-0.12528 2.0518 0 0.06976-0.01395 0.15368-0.0272 0.22344-0.08371 0.64174-0.20894 1.269-0.3624 1.8828-0.0279 0.09766-0.04297 0.19422-0.07087 0.27793-0.16741 0.59989-0.36261 1.2019-0.58583 1.7738-0.0279 0.08371-0.07017 0.16698-0.09808 0.25068-0.23717 0.58594-0.51598 1.1586-0.8229 1.7166-0.0279 0.04185-0.05664 0.09711-0.08454 0.13896-0.66965 1.1858-1.4634 2.2738-2.3842 3.2643-0.46038 0.48828-0.94975 0.94899-1.4659 1.3815-0.0279 0.0279-0.0565 0.04022-0.08454 0.06812-0.50223 0.41853-1.0305 0.80894-1.5886 1.1717h-0.0028v0.0028h-0.0056l-0.0028 0.0028c-0.0098 0.0085-0.02218 0.02768-0.03265 0.03814-0.43248 0.27902-0.71118 0.75357-0.71118 1.2698v12.109c5.9152-2.0926 10.842-6.2631 13.869-11.662 2.0787-3.711 3.2779-7.9806 3.2779-12.529 0-8.0637-3.725-15.249-9.5286-19.965-0.083713-0.09766-0.18234-0.17994-0.3079-0.29155-0.94866-0.82311-1.7306-1.564-2.4142-2.2616-0.34877-0.34877-0.6556-0.68458-0.93462-1.0054-0.79519-0.90681-1.3536-1.6876-1.7302-2.3433-0.12556-0.23717-0.24872-0.45831-0.33242-0.66757-0.0279-0.0558-0.04297-0.11281-0.07087-0.18256-0.43248-1.0882-0.3213-1.7995-0.09807-2.218 0 0 0.01395 0.0061 0.02176 0.01367l0.0028 0.0028v0.0028l0.0028 0.0028v0.0056c0.23717 0.61384 0.65547 1.2131 1.1717 1.7711 0.80916 0.89286 1.8558 1.6889 2.7766 2.2888 0.7115 0.37668 1.4094 0.78006 2.079 1.2125 0.04185 0.0279 0.07087 0.0436 0.07087 0.0436 5.1619 3.3203 9.2489 8.1466 11.649 13.866 0.23717 0.58594 0.46104 1.1712 0.6703 1.7711 1.0742 3.1111 1.673 6.4608 1.673 9.9346 0 4.1434-0.83663 8.1037-2.3433 11.703l-0.05455-0.01367c-0.23717 0.55804-0.48969 1.118-0.75476 1.6621-2.9576 6.0268-7.8669 10.922-13.894 13.894-1.423 0.69755-2.9041 1.2971-4.4387 1.7575-2.8181 0.86496-5.8154 1.3406-8.9264 1.3406-3.1111 0-6.1111-0.47564-8.9292-1.3406-1.5346-0.47433-3.013-1.0599-4.436-1.7575-6.0268-2.9577-10.925-7.867-13.896-13.894-0.26507-0.54409-0.51488-1.1041-0.75204-1.6621-1.5067-3.5993-2.3461-7.5596-2.3461-11.703 0-3.4738 0.60153-6.8235 1.6758-9.9346 0.20926-0.59989 0.43313-1.1991 0.6703-1.7711 2.3856-5.7199 6.4867-10.546 11.649-13.853 0 0 0.02627-0.0157 0.06812-0.0436 0.66965-0.43248 1.3675-0.83586 2.079-1.2125 0.92076-0.61384 1.9674-1.396 2.7766-2.2888 0.50224-0.55804 0.9345-1.1573 1.1717-1.7711v-0.0028l0.0028-0.0028v-0.0028h0.0028v-0.0028l0.0028-0.0028c0.0053-0.0035 0.01483-0.0067 0.02181-0.01367zm8.5504 42.368v0.12534c0 4.1016 0.26486 8.1904 0.8229 12.041 0.0558 0.37668 0.11286 0.75444 0.18256 1.1172 0.06976 0.41853 0.12374 0.86485 0.19346 1.2834 0.06976 0.37668 0.13972 0.73875 0.22344 1.0736 0.08371 0.37668 0.16936 0.7394 0.26702 1.0463 0.08371-0.30692 0.1806-0.66964 0.2643-1.0463 0.06975-0.33482 0.13973-0.69689 0.22344-1.0736 0.08371-0.41853 0.12374-0.8509 0.19346-1.2834 0.0558-0.37668 0.12681-0.74049 0.18256-1.1172 0.55804-3.8505 0.8229-7.9393 0.8229-12.041v-0.12534c-0.55804 0.0558-1.115 0.09809-1.673 0.09809-0.55804 0-1.1317-0.04228-1.6757-0.09809z"/></svg>
